# xmcd
#
# Track frame offsets:
#	150
#	19703
#	44466
#	85046
#	104633
#	130186
#	150613
#	169220
#	194117
#	215022
#	232275
#
# Disc length: 3305 seconds
#
# Revision: 1
# Processed by: cddbd v1.5.2PL0 Copyright (c) Steve Scherf et al.
# Submitted via: EasyCDDAExtractor 16.0.8.1
#
DISCID=9f0ce70b
DTITLE=The Ramblers - Love Automatic
DYEAR=1900
DGENRE=Blues
TTITLE0=Electric Sex
TTITLE1=Ramblers' Anthem
TTITLE2=Baby Be Mine 
TTITLE3=The Last Time We Say Goodbye
TTITLE4=Stop Breaking Down
TTITLE5=Love Automatic
TTITLE6=Everybody's Busy Doing Nothing
TTITLE7=Magaly 
TTITLE8=Esperanza
TTITLE9=The Last Time We Say Goodbye (Alt. Version)
TTITLE10=Hey Kitty Kitty 
EXTD=
EXTT0=
EXTT1=
EXTT2=
EXTT3=
EXTT4=
EXTT5=
EXTT6=
EXTT7=
EXTT8=
EXTT9=
EXTT10=
PLAYORDER=
